<svg id = "satelite" width="66" height="70" viewBox="-102 0 66 70" fill="none" xmlns="http://www.w3.org/2000/svg">
<path d="M65.3162 48.3385L46.8467 29.7337L48.8966 19.6373C49.4255 19.8438 49.9878 19.9517 50.5556 19.9558H50.5696C53.1776 19.9866 55.3169 17.8974 55.3478 15.2893C55.3787 12.6812 53.2894 10.542 50.6813 10.5111C48.0732 10.4803 45.934 12.5695 45.903 15.1776C45.8965 15.7357 45.9888 16.2905 46.1759 16.8163L35.3259 18.1405L17.6276 0.35C17.4104 0.128479 17.1141 0.00247917 16.8039 0C16.4976 0.00160417 16.2044 0.123521 15.9872 0.3395L12.6786 3.6295C12.2231 4.08508 12.2231 4.82358 12.6786 5.27917L14.4589 7.08517C7.56156 19.7681 9.80185 35.4741 19.9702 45.7228C20.0636 45.8121 20.1718 45.8843 20.2899 45.9363C20.2164 46.3311 20.178 46.7317 20.1756 47.1333V60.6667H6.17556C2.95556 60.6705 0.346016 63.28 0.342224 66.5V68.8333C0.342224 69.4776 0.864599 70 1.50889 70H55.1756C55.8199 70 56.3422 69.4776 56.3422 68.8333V66.5C56.3384 63.28 53.7289 60.6705 50.5089 60.6667H36.5089V54.6688C38.7021 55.1288 40.9367 55.3633 43.1776 55.3688C48.5547 55.363 53.8463 54.0225 58.5776 51.4675L60.3672 53.2677C60.5844 53.4892 60.8807 53.6152 61.1909 53.6177C61.4971 53.6161 61.7904 53.4941 62.0076 53.2782L65.3162 49.9882C65.7717 49.5326 65.7717 48.7941 65.3162 48.3385ZM48.9246 13.6348C49.8382 12.726 51.3156 12.7301 52.2243 13.6437C53.1332 14.5574 53.1291 16.0348 52.2154 16.9435C51.7781 17.3785 51.1863 17.6226 50.5694 17.6225H50.5624C49.2738 17.6158 48.2345 16.5658 48.2412 15.2771C48.2444 14.6602 48.4917 14.0699 48.9291 13.6348H48.9246ZM46.1782 21.301L44.8692 27.7445L42.2979 25.158L46.1782 21.301ZM44.8529 19.3282L40.6529 23.5037L37.4037 20.237L44.8529 19.3282ZM50.5089 63C52.4419 63 54.0089 64.567 54.0089 66.5V67.6667H2.67556V66.5C2.67556 64.567 4.24254 63 6.17556 63H50.5089ZM34.1756 58.3333V60.6667H22.5089V58.3333H34.1756ZM22.5089 56V47.1333C22.5089 44.303 25.1257 42 28.3422 42C31.5587 42 34.1756 44.303 34.1756 47.1333V56H22.5089ZM36.5089 52.29V47.1333C36.5089 43.0162 32.8456 39.6667 28.3422 39.6667C25.4305 39.622 22.7078 41.1041 21.1649 43.5738C12.2886 34.2249 10.2898 20.2875 16.1805 8.82073L56.8719 49.7455C50.5885 52.9419 43.3857 53.8418 36.5089 52.29ZM61.2037 50.7943L59.5599 49.1412L16.7922 6.11567L15.1414 4.46133L16.7922 2.81633L34.1499 20.272C34.1581 20.272 34.1627 20.2872 34.1709 20.293L62.8592 49.1493L61.2037 50.7943Z" fill="#212121"/>
</svg>

<svg id = "laptop" width="70" height="54" viewBox="0 0 70 54" fill="none" xmlns="http://www.w3.org/2000/svg">
<path d="M3.49817 53.8866H59.4689C61.4007 53.8866 62.967 52.3203 62.967 50.3884V45.7242C62.967 43.7923 61.4007 42.226 59.4689 42.226H58.3028V13.1469L64.9262 6.87253C66.4635 7.63035 68.3242 7.17031 69.3302 5.78163C70.3369 4.39352 70.1957 2.48217 68.9966 1.2569C67.7975 0.0316271 65.8901 -0.151139 64.4798 0.824181C63.0701 1.80007 62.569 3.64993 63.2933 5.20372L58.3028 9.93456V7.24432C58.3028 5.31247 56.7365 3.74615 54.8046 3.74615H8.16239C6.23054 3.74615 4.66422 5.31247 4.66422 7.24432V42.226H3.49817C1.56632 42.226 0 43.7923 0 45.7242V50.3884C0 52.3203 1.56632 53.8866 3.49817 53.8866ZM66.4652 2.5801C67.1091 2.5801 67.6312 3.1022 67.6312 3.74615C67.6312 4.3901 67.1091 4.91221 66.4652 4.91221C65.8212 4.91221 65.2991 4.3901 65.2991 3.74615C65.2991 3.1022 65.8212 2.5801 66.4652 2.5801ZM6.99634 7.24432C6.99634 6.60037 7.51844 6.07827 8.16239 6.07827H54.8046C55.4486 6.07827 55.9707 6.60037 55.9707 7.24432V12.1414L53.6386 14.3574V9.57644C53.6386 8.93248 53.1165 8.41038 52.4725 8.41038H10.4945C9.85055 8.41038 9.32845 8.93248 9.32845 9.57644V38.7278C9.32845 39.3718 9.85055 39.8939 10.4945 39.8939H52.4725C53.1165 39.8939 53.6386 39.3718 53.6386 38.7278V17.5652L55.9707 15.3555V42.226H6.99634V7.24432ZM17.4908 22.4031C15.9131 22.3985 14.5279 23.4495 14.1083 24.9703C13.6886 26.4911 14.3383 28.1041 15.6951 28.9092C17.0513 29.7143 18.7793 29.5121 19.9129 28.415L23.9662 30.4487C24.4371 30.6844 25.0081 30.574 25.3583 30.1806L33.9745 20.4871L42.4443 26.8338C42.8987 27.1743 43.5329 27.1379 43.9452 26.7479L51.3065 19.7749V37.5618H11.6606V10.7425H51.3065V16.562L43.0564 24.3748L34.5154 17.9717C34.0303 17.6084 33.3476 17.6768 32.9445 18.1294L24.2099 27.9572L20.9446 26.3243C20.9685 26.1842 20.9833 26.043 20.989 25.9012C20.989 23.9694 19.4227 22.4031 17.4908 22.4031ZM18.6569 25.9012C18.6569 26.5452 18.1348 27.0673 17.4908 27.0673C16.8469 27.0673 16.3248 26.5452 16.3248 25.9012C16.3248 25.2573 16.8469 24.7352 17.4908 24.7352C18.1348 24.7352 18.6569 25.2573 18.6569 25.9012ZM25.6532 44.5581H37.3138V45.7242C37.3138 46.3681 36.7917 46.8902 36.1477 46.8902H26.8193C26.1753 46.8902 25.6532 46.3681 25.6532 45.7242V44.5581ZM2.33211 45.7242C2.33211 45.0802 2.85422 44.5581 3.49817 44.5581H23.3211V45.7242C23.3211 47.656 24.8874 49.2223 26.8193 49.2223H36.1477C38.0796 49.2223 39.6459 47.656 39.6459 45.7242V44.5581H59.4689C60.1128 44.5581 60.6349 45.0802 60.6349 45.7242V50.3884C60.6349 51.0324 60.1128 51.5545 59.4689 51.5545H3.49817C2.85422 51.5545 2.33211 51.0324 2.33211 50.3884V45.7242Z" fill="#212121"/>
</svg>

<svg id="clock" width="68" height="70" viewBox="0 0 68 70" fill="none" xmlns="http://www.w3.org/2000/svg">
<path d="M67.4614 33.4715C67.4577 14.9819 52.4656 -0.00373771 33.9755 6.99302e-07C15.4859 0.00373911 0.500199 14.9963 0.503937 33.4859C0.507142 48.0502 9.92525 60.9413 23.7995 65.3713C23.932 65.413 24.0698 65.4343 24.2081 65.4338C24.4719 65.4333 24.7304 65.3628 24.9574 65.2287C25.2527 65.0541 25.4733 64.7764 25.5769 64.449L34.0315 37.6521C36.3429 37.6404 38.2068 35.7568 38.1945 33.4459C38.1828 31.1345 36.2997 29.2706 33.9883 29.2824C33.3666 29.285 32.753 29.4282 32.1944 29.7011L21.0251 18.5302C20.4708 17.9951 19.588 18.0106 19.0528 18.5644C18.5305 19.1054 18.5305 19.962 19.0528 20.503L30.2162 31.6792C29.3596 33.4277 29.8493 35.5383 31.3896 36.7303L23.3338 62.2647C7.41358 56.4002 -0.738281 38.7405 5.12621 22.8203C10.9907 6.90002 28.6504 -1.25183 44.5706 4.61266C60.4909 10.4771 68.6428 28.1374 62.7783 44.0571C59.913 51.8351 54.0261 58.1252 46.4548 61.4989L45.5843 57.3989C45.4251 56.6454 44.6844 56.1636 43.9308 56.3233C43.6932 56.3741 43.4726 56.4857 43.291 56.6475L34.8978 64.1409C34.3221 64.653 34.2708 65.5347 34.7835 66.1105C34.9501 66.2974 35.1637 66.4362 35.403 66.5126L46.1189 69.9327C46.8521 70.1682 47.6377 69.765 47.8732 69.0312C47.948 68.7994 47.9603 68.5527 47.9101 68.3145L47.0545 64.2915C59.4452 59.0678 67.4903 46.918 67.4614 33.4715ZM33.9829 32.0766C34.7531 32.0766 35.3779 32.7014 35.3779 33.4715C35.3779 34.2422 34.7531 34.8665 33.9829 34.8665C33.2123 34.8665 32.588 34.2422 32.588 33.4715C32.588 32.7014 33.2123 32.0766 33.9829 32.0766ZM38.5774 64.5916L43.3551 60.3298L44.6737 66.543L38.5774 64.5916Z" fill="#212121"/>
</svg>

<svg id = "astronaut" width="70" height="70" viewBox="-100 0 70 70" fill="none" xmlns="http://www.w3.org/2000/svg">
<path d="M69.9433 9.89643C69.8056 9.47519 69.4416 9.1673 69.0018 9.10304L64.8228 8.49518L62.9526 4.70815C62.5606 3.91011 61.2527 3.91011 60.8608 4.70815L58.9906 8.49518L54.8114 9.10318C54.3716 9.1673 54.0076 9.47424 53.8687 9.89657C53.7323 10.3189 53.8453 10.7832 54.1639 11.0925L57.1891 14.0407L56.4752 18.2035C56.4005 18.641 56.5802 19.0831 56.9384 19.3445C57.3012 19.6083 57.7748 19.6408 58.168 19.4331L61.9061 17.4672L65.6442 19.4331C65.8146 19.5229 66.0024 19.5672 66.1879 19.5672C66.4294 19.5672 66.671 19.4926 66.874 19.3444C67.2333 19.0831 67.413 18.6408 67.3372 18.2033L66.6233 14.0406L69.6485 11.0923C69.9654 10.782 70.0798 10.3188 69.9433 9.89643ZM64.5556 12.7992C64.2815 13.0663 64.1555 13.4536 64.2208 13.8317L64.6385 16.2689L62.4499 15.1185C62.2795 15.0287 62.0929 14.9844 61.9061 14.9844C61.7195 14.9844 61.534 15.0287 61.3624 15.1185L59.1736 16.2689L59.5913 13.8317C59.6567 13.4536 59.5306 13.0675 59.2565 12.7992L57.4843 11.0725L59.932 10.7166C60.3124 10.6618 60.6402 10.4227 60.8106 10.0784L61.9049 7.86175L62.9992 10.0784C63.1696 10.4225 63.4974 10.6618 63.8778 10.7166L66.3255 11.0725L64.5556 12.7992Z" fill="#2196F3"/>
<path d="M57.167 44.8923H54.8336V47.2257H57.167V44.8923Z" fill="#2196F3"/>
<path d="M57.167 49.5591H54.8336V51.8925H57.167V49.5591Z" fill="#2196F3"/>
<path d="M59.5004 47.2256H57.167V49.559H59.5004V47.2256Z" fill="#2196F3"/>
<path d="M54.8337 47.2256H52.5003V49.559H54.8337V47.2256Z" fill="#2196F3"/>
<path d="M49.0002 57.7258H46.6668V60.0592H49.0002V57.7258Z" fill="#2196F3"/>
<path d="M49.0002 62.3926H46.6668V64.726H49.0002V62.3926Z" fill="#2196F3"/>
<path d="M51.3337 60.0593H49.0002V62.3927H51.3337V60.0593Z" fill="#2196F3"/>
<path d="M46.6668 60.0593H44.3334V62.3927H46.6668V60.0593Z" fill="#2196F3"/>
<path d="M35 53.0593H32.6666V55.3927H35V53.0593Z" fill="#2196F3"/>
<path d="M35 57.7258H32.6666V60.0592H35V57.7258Z" fill="#2196F3"/>
<path d="M37.3334 55.3926H35V57.726H37.3334V55.3926Z" fill="#2196F3"/>
<path d="M32.6666 55.3926H30.3332V57.726H32.6666V55.3926Z" fill="#2196F3"/>
<path d="M12.833 13.3918H10.4996V15.7253H12.833V13.3918Z" fill="#2196F3"/>
<path d="M12.833 18.0586H10.4996V20.392H12.833V18.0586Z" fill="#2196F3"/>
<path d="M15.1663 15.7253H12.8329V18.0588H15.1663V15.7253Z" fill="#2196F3"/>
<path d="M10.4996 15.7253H8.1662V18.0588H10.4996V15.7253Z" fill="#2196F3"/>
<path d="M54.0635 30.9737C53.4348 30.1255 52.5119 29.5796 51.4642 29.4325C50.4119 29.2832 49.3735 29.5596 48.5335 30.2025L45.7952 32.3013L45.794 32.3025L41.6429 35.4024L38.6725 34.2194C43.9692 31.8429 47.6712 26.545 47.6712 20.3942C47.6712 12.0313 40.8402 5.22729 32.4436 5.22729C24.047 5.22729 17.2162 12.0313 17.2162 20.3942C17.2162 23.4253 18.1226 26.2439 19.6662 28.6157L13.6204 28.5632C13.6169 28.5632 13.6134 28.5632 13.6099 28.5632C13.5912 28.5632 13.5761 28.5725 13.5586 28.5738C13.4431 28.5784 13.3299 28.6018 13.2191 28.6414C13.1911 28.652 13.162 28.6578 13.1352 28.6705C13.1212 28.6764 13.1072 28.6775 13.0932 28.6845L6.02078 32.1763C6.01955 32.1763 6.01846 32.1763 6.01846 32.1774L1.87663 34.1692C1.8311 34.189 1.78448 34.2158 1.73895 34.2462C0.0880496 35.3451 -0.474284 37.5035 0.429989 39.2675C0.911793 40.2055 1.73198 40.8963 2.74003 41.2124C3.12859 41.3336 3.52521 41.3932 3.91952 41.3932C4.55308 41.3932 5.18077 41.2381 5.75582 40.9313L8.79157 39.3166L13.7441 36.7592L16.7122 36.7417L4.80848 48.5883C4.80738 48.5895 4.80615 48.5895 4.80492 48.5906L1.8765 51.5073C1.18469 52.1957 0.80433 53.1091 0.80433 54.0834C0.80433 55.0564 1.18469 55.9722 1.8765 56.6618C2.58703 57.3688 3.52152 57.7235 4.45601 57.7235C5.39173 57.7235 6.32498 57.3688 7.03785 56.6618L9.91254 53.7987L13.7206 50.9555L15.6912 52.9179L11.8376 56.7551C11.8365 56.7563 11.8352 56.7563 11.834 56.7574L8.90559 59.6741C8.21378 60.3624 7.83343 61.2759 7.83343 62.2501C7.83343 63.2232 8.21378 64.1389 8.90559 64.8286C9.61613 65.5356 10.5518 65.8902 11.4863 65.8902C12.4208 65.8902 13.3565 65.5356 14.0682 64.8286L16.9977 61.9119L21.6842 57.2452C21.6854 57.244 21.6854 57.2429 21.6865 57.2417L23.8951 55.0541L23.8869 55.0459C23.9009 55.032 23.9207 55.0272 23.9348 55.0121L35.2353 42.6348L42.8281 43.7152C42.8829 43.7234 42.9377 43.7268 42.9926 43.7268C43.1338 43.7268 43.2703 43.693 43.4021 43.6428C43.4406 43.6289 43.4744 43.6102 43.5106 43.5916C43.5526 43.5705 43.5969 43.5589 43.6367 43.5321L50.6659 38.8654C50.6916 38.8479 50.7056 38.8199 50.73 38.8013C50.758 38.7791 50.7931 38.7698 50.8186 38.7452L53.5999 36.14C55.0471 34.784 55.2466 32.5627 54.0635 30.9737ZM4.66027 38.8721C4.28114 39.0751 3.85061 39.1159 3.43881 38.9853C3.03042 38.8582 2.69915 38.5793 2.50541 38.2025C2.15308 37.5164 2.35721 36.681 2.97436 36.2296L5.84796 34.8471L6.53977 36.8689L6.8303 37.7182L4.66027 38.8721ZM12.3102 34.874L8.92336 36.624L8.36459 34.9906L7.96331 33.8169L12.3968 31.6281L12.3102 34.874ZM45.3402 20.3918C45.3402 22.4008 44.8607 24.2956 44.03 25.9907L34.8832 21.8361C34.7875 20.582 34.1366 19.4841 33.1589 18.8004L36.3615 8.16843C41.5626 9.82289 45.3402 14.6751 45.3402 20.3918ZM19.5519 20.3918C19.5519 13.3158 25.3363 7.55825 32.4461 7.55825C32.9991 7.55825 33.5404 7.60487 34.0759 7.67255L30.9434 18.0713C30.9014 18.07 30.8617 18.0584 30.8185 18.0584C28.5598 18.0584 26.7222 19.8901 26.7222 22.1419C26.7222 24.3935 28.5598 26.2253 30.8185 26.2253C32.3375 26.2253 33.65 25.3865 34.3582 24.159L42.8073 27.9975C40.4564 31.1615 36.6938 33.2254 32.4459 33.2254C25.3363 33.2254 19.5519 27.4678 19.5519 20.3918ZM32.5814 22.1419C32.5814 23.1067 31.7903 23.8919 30.8185 23.8919C29.8467 23.8919 29.0557 23.1067 29.0557 22.1419C29.0557 21.177 29.8467 20.3918 30.8185 20.3918C31.7903 20.3918 32.5814 21.177 32.5814 22.1419ZM5.39186 55.0074C4.87506 55.5195 4.03846 55.5184 3.52289 55.0086C3.27433 54.76 3.13788 54.4323 3.13788 54.0834C3.13788 53.7357 3.27433 53.4079 3.52289 53.1618L5.62743 51.0652L7.48944 52.9191L5.39186 55.0074ZM12.4222 63.1742C11.9054 63.6864 11.0677 63.6876 10.552 63.1755C10.3034 62.9269 10.167 62.5992 10.167 62.2503C10.167 61.9026 10.3034 61.5747 10.552 61.3287L12.6579 59.2309L13.5388 60.1072L14.5211 61.0849L12.4222 63.1742ZM20.0384 55.5861C20.0371 55.5872 20.036 55.5872 20.0348 55.5884L16.1742 59.4385L15.2933 58.5622L14.311 57.5845L18.168 53.745C18.168 53.745 18.168 53.745 18.168 53.7439C18.1693 53.7427 18.1703 53.7427 18.1716 53.7416C18.2591 53.6541 18.3139 53.5491 18.3676 53.4453C18.3828 53.415 18.4119 53.3893 18.4248 53.3578C18.461 53.268 18.4668 53.1712 18.4808 53.0766C18.4878 53.0229 18.5112 52.9728 18.5112 52.9179C18.5112 52.8396 18.4832 52.7639 18.4669 52.6868C18.4529 52.6168 18.4529 52.5456 18.426 52.478C18.3817 52.3684 18.3058 52.2716 18.2265 52.177C18.2044 52.1513 18.1962 52.1186 18.1717 52.0941C18.1717 52.0941 18.1717 52.0941 18.1705 52.0941C18.1693 52.093 18.1693 52.0906 18.1682 52.0895L14.6529 48.5894C14.6156 48.5521 14.5678 48.5369 14.5258 48.5055C14.464 48.4576 14.4045 48.4133 14.3356 48.3794C14.2692 48.3467 14.2015 48.3269 14.1315 48.3082C14.0568 48.2871 13.9845 48.2709 13.9063 48.265C13.8351 48.2603 13.7686 48.2673 13.6975 48.2755C13.6193 48.2848 13.5459 48.2953 13.47 48.3198C13.3965 48.3432 13.3312 48.3793 13.2636 48.4178C13.2204 48.4423 13.1714 48.4505 13.1305 48.4809L9.25136 51.3766L7.2808 49.4142L12.5286 44.1945L22.0674 53.5759L20.0384 55.5861ZM34.9545 40.2371C34.9207 40.2325 34.8891 40.2453 34.8554 40.243C34.7702 40.2384 34.6886 40.2442 34.6034 40.2582C34.5369 40.2698 34.4739 40.2827 34.4109 40.3048C34.3362 40.3305 34.2686 40.3655 34.1996 40.4075C34.1343 40.4471 34.0748 40.4891 34.0177 40.5416C33.9896 40.5661 33.9559 40.5778 33.9302 40.6057L23.6527 51.862L14.1851 42.5506L20.3825 36.3858C20.8387 35.9308 20.8411 35.1923 20.386 34.7349C20.1562 34.5051 19.8541 34.3919 19.5519 34.3931V34.392L14.6985 34.4212L14.7592 30.9048L21.5493 30.9632C24.3166 33.7936 28.176 35.5588 32.4461 35.5588C33.4027 35.5588 34.3361 35.4597 35.2449 35.2904C35.3324 35.3604 35.4186 35.4317 35.5284 35.476L40.7996 37.576L41.1332 39.235L41.5228 41.1716L34.9545 40.2371ZM43.7944 40.6268L43.1096 37.2189L46.2736 34.8563L47.102 35.9553L48.3445 37.605L43.7944 40.6268ZM52.0055 34.434L50.1726 36.1514L48.1356 33.447L49.9544 32.0529C50.2939 31.7916 50.7221 31.6854 51.1421 31.7402C51.5644 31.7997 51.9378 32.0202 52.1921 32.362C52.6659 33.0002 52.5853 33.8904 52.0055 34.434Z" fill="#212121"/>
<path d="M29.7545 40.5651L25.0668 35.8984C24.613 35.4447 23.8755 35.4447 23.4205 35.8984L18.734 40.5651C18.5147 40.7857 18.391 41.0819 18.391 41.3923C18.391 41.7026 18.5135 42.0002 18.734 42.2195L23.4205 46.8861C23.648 47.1124 23.9468 47.2256 24.2443 47.2256C24.5418 47.2256 24.8404 47.1124 25.0668 46.8861L29.7545 42.2195C29.9738 42.0002 30.0987 41.7026 30.0987 41.3923C30.0987 41.0819 29.9749 40.7844 29.7545 40.5651ZM24.2443 44.4129L21.2109 41.3923L24.2443 38.3717L27.2788 41.3923L24.2443 44.4129Z" fill="#212121"/>
<path d="M37.5468 11.0923L36.9833 13.358C37.1385 13.3966 40.7844 14.3462 40.7844 18.0586H43.1178C43.1177 13.6461 39.4742 11.5718 37.5468 11.0923Z" fill="#212121"/>
<path d="M43.1178 20.3918H40.7844V22.7253H43.1178V20.3918Z" fill="#212121"/>
</svg>